<?xml version="1.0" standalone="no"?>
<!DOCTYPE svg PUBLIC "-//W3C//DTD SVG 20010904//EN"
 "http://www.w3.org/TR/2001/REC-SVG-20010904/DTD/svg10.dtd">
<svg version="1.0" xmlns="http://www.w3.org/2000/svg"
 width="700.000000pt" height="700.000000pt" viewBox="0 0 700.000000 700.000000"
 preserveAspectRatio="xMidYMid meet">
<metadata>
Created by potrace 1.11, written by Peter Selinger 2001-2013
</metadata>
<g transform="translate(0.000000,700.000000) scale(0.100000,-0.100000)"
fill="#000000" stroke="none">
<path d="M3178 6435 c-1 -1 -34 -6 -73 -10 -38 -3 -104 -13 -145 -20 -41 -8
-86 -16 -100 -19 -14 -2 -71 -16 -126 -30 -691 -176 -1382 -633 -1833 -1214
-73 -94 -241 -335 -241 -346 0 -3 -15 -29 -33 -58 -51 -80 -139 -250 -192
-368 -25 -58 -52 -118 -60 -135 -88 -194 -242 -723 -279 -960 -12 -76 -16
-100 -26 -150 -5 -27 -12 -77 -16 -110 -3 -33 -8 -67 -9 -75 -2 -8 -6 -46 -10
-85 -4 -38 -8 -80 -10 -93 -15 -97 -20 -382 -20 -1192 l0 -935 23 -75 c43
-137 115 -253 214 -347 78 -73 160 -122 293 -173 91 -36 45 -35 2970 -35
l2850 0 80 23 c83 24 169 63 229 104 20 13 111 93 140 123 74 75 154 234 181
360 19 95 19 1512 -1 1588 -44 169 -193 263 -410 259 -139 -3 -261 -59 -395
-179 -85 -78 -125 -108 -154 -115 -11 -3 -69 -20 -128 -38 -99 -28 -205 -52
-297 -66 -19 -3 -46 -7 -60 -10 -153 -26 -543 -25 -730 2 -114 17 -228 38
-319 60 -109 27 -319 93 -374 118 -18 8 -61 27 -97 41 -253 104 -547 305 -736
505 -193 203 -341 482 -370 695 -3 21 -9 59 -14 84 -11 58 -5 247 9 336 47
275 167 520 335 679 54 51 160 136 170 136 4 0 23 10 44 23 20 13 62 33 92 46
30 12 64 26 75 31 33 15 147 47 195 55 25 4 54 9 65 11 99 20 427 26 555 11
269 -32 565 -114 690 -191 118 -73 275 -145 373 -171 58 -16 154 -13 183 5 70
44 75 175 14 360 -69 209 -213 452 -385 650 -177 204 -471 445 -700 573 -244
136 -589 261 -808 292 -23 3 -69 11 -102 17 -53 9 -518 21 -527 13z"/>
</g>
</svg>
